<?xml version="1.0" encoding="iso-8859-1"?>
<!-- Generator: Adobe Illustrator 19.1.0, SVG Export Plug-In . SVG Version: 6.00 Build 0)  -->
<svg version="1.1" id="Layer_1" xmlns="http://www.w3.org/2000/svg" xmlns:xlink="http://www.w3.org/1999/xlink" x="0px" y="0px"
	 viewBox="235.893 17.745 140.215 427.536" style="enable-background:new 235.893 17.745 140.215 427.536;" xml:space="preserve">
<path d="M376.108,232.11c0-13.533-4.387-25.605-13.161-36.216c-8.774-10.607-25.091-21.59-48.947-32.946V72.11
	c19.382,0.688,34.925,5.621,46.624,14.796V57.658c-8.602-5.734-24.145-8.946-46.624-9.634V17.745h-17.892v30.967
	c-17.436,2.409-31.828,9.664-43.183,21.764c-11.354,12.102-17.032,26.467-17.032,43.096c0,13.995,3.726,26.124,11.183,36.388
	c7.454,10.266,23.798,21.478,49.032,33.634v88.086c-9.978,0-20.73-1.979-32.258-5.936c-11.527-3.957-20.618-8.861-27.269-14.71
	v29.934c15.253,9.866,35.097,14.797,59.526,14.797l0.782,72.017l-35.618-0.085l44.546,77.583l44.914-77.369l-35.946-0.086
	L314,294.39c19.498-3.097,34.723-10.178,45.678-21.249C370.63,262.074,376.108,248.398,376.108,232.11z M296.108,153.315
	c-11.698-6.422-19.844-12.787-24.43-19.097c-4.589-6.306-6.882-14.393-6.882-24.258c0-9.403,2.81-17.403,8.43-24
	c5.618-6.594,13.247-10.866,22.882-12.817V153.315z M314,270.304V192.54c22.134,12.158,33.206,26.15,33.206,41.979
	C347.206,253.559,336.134,265.486,314,270.304z"/>
</svg>
