<?xml version="1.0" encoding="iso-8859-1"?>
<!-- Generator: Adobe Illustrator 19.1.0, SVG Export Plug-In . SVG Version: 6.00 Build 0)  -->
<svg version="1.1" id="Layer_1" xmlns="http://www.w3.org/2000/svg" xmlns:xlink="http://www.w3.org/1999/xlink" x="0px" y="0px"
	 viewBox="30.294 44.1 550.533 550.494" style="enable-background:new 30.294 44.1 550.533 550.494;" xml:space="preserve">
<path d="M566.1,44.1H336.6c-4.284,0-7.956,1.836-11.016,4.284l-290.7,290.7c-6.12,6.12-6.12,15.912,0,21.42l229.5,229.5
	c6.12,6.12,15.912,6.12,21.42,0l290.7-290.7c3.06-3.06,4.284-6.732,4.284-11.016V59.4C581.4,50.832,574.668,44.1,566.1,44.1z
	 M550.8,282.78l-275.4,275.4L67.32,350.1l275.4-275.4H550.8V282.78z"/>
<path d="M474.3,197.1c25.092,0,45.9-20.808,45.9-45.9s-20.808-45.9-45.9-45.9s-45.9,20.808-45.9,45.9S449.208,197.1,474.3,197.1z
	 M474.3,135.9c8.568,0,15.3,6.732,15.3,15.3s-6.732,15.3-15.3,15.3c-8.568,0-15.3-6.732-15.3-15.3S465.732,135.9,474.3,135.9z"/>
</svg>
