<?xml version="1.0" encoding="iso-8859-1"?>
<!-- Generator: Adobe Illustrator 19.1.0, SVG Export Plug-In . SVG Version: 6.00 Build 0)  -->
<svg version="1.1" id="Layer_1" xmlns="http://www.w3.org/2000/svg" xmlns:xlink="http://www.w3.org/1999/xlink" x="0px" y="0px"
	 viewBox="125.855 132.547 360.291 373.906" style="enable-background:new 125.855 132.547 360.291 373.906;" xml:space="preserve">
<g>
	<g>
		<path d="M327.85,506.453c-3.353,0-6.084-2.701-6.12-6.06l-1.255-123.667c-0.015-1.506,0.526-2.965,1.521-4.094
			c1.067-1.219,104.859-120.697,111.779-227.845H178.227c7.079,107.147,114.962,226.535,116.074,227.754
			c1.028,1.124,1.599,2.6,1.599,4.124v123.667c0,3.383-2.741,6.12-6.12,6.12c-3.379,0-6.12-2.737-6.12-6.12V378.997
			c-6.488-7.351-31.673-36.642-56.816-75.944c-39.215-61.289-59.786-116.537-61.149-164.212c-0.048-1.649,0.577-3.251,1.727-4.441
			c1.154-1.184,2.737-1.853,4.39-1.853h268.377c1.652,0,3.236,0.67,4.39,1.853c1.151,1.189,1.775,2.791,1.727,4.441
			c-1.36,47.639-21.178,102.856-58.905,164.122c-24.193,39.296-48.413,68.581-54.661,75.944l1.231,121.366
			c0.033,3.377-2.677,6.144-6.057,6.18C327.892,506.453,327.871,506.453,327.85,506.453z"/>
	</g>
	<g>
		<path d="M355.884,506.453h-99.767c-3.379,0-6.12-2.738-6.12-6.12c0-3.383,2.741-6.12,6.12-6.12h99.767
			c3.379,0,6.12,2.738,6.12,6.12C362.003,503.716,359.263,506.453,355.884,506.453z"/>
	</g>
	<g>
		<g>
			<path d="M406.337,316.649c-2.684,0-5.146-1.775-5.896-4.488c-0.9-3.257,1.01-6.628,4.268-7.531
				c33.546-9.275,69.196-35.411,69.196-65.593c0-17.667-6.655-34.497-18.739-47.376c-2.313-2.468-2.187-6.341,0.278-8.654
				c2.462-2.307,6.335-2.187,8.651,0.275c14.218,15.162,22.05,34.963,22.05,55.756c0,36.618-39.326,66.65-78.173,77.39
				C407.426,316.578,406.875,316.649,406.337,316.649z"/>
		</g>
		<g>
			<path d="M205.663,316.649c-0.541,0-1.088-0.072-1.635-0.221c-38.848-10.74-78.173-40.772-78.173-77.39
				c0-20.793,7.832-40.593,22.05-55.756c2.313-2.462,6.189-2.582,8.651-0.275c2.465,2.313,2.591,6.185,0.278,8.654
				c-12.085,12.88-18.739,29.71-18.739,47.376c0,30.181,35.65,56.317,69.196,65.593c3.257,0.903,5.167,4.273,4.267,7.531
				C210.808,314.874,208.346,316.649,205.663,316.649z"/>
		</g>
	</g>
</g>
</svg>
