<?xml version="1.0" encoding="utf-8"?>
<!-- Generator: Adobe Illustrator 17.1.0, SVG Export Plug-In . SVG Version: 6.00 Build 0)  -->
<!DOCTYPE svg PUBLIC "-//W3C//DTD SVG 1.1//EN" "http://www.w3.org/Graphics/SVG/1.1/DTD/svg11.dtd">
<svg version="1.1" id="Layer_1" xmlns="http://www.w3.org/2000/svg" xmlns:xlink="http://www.w3.org/1999/xlink" x="0px" y="0px"
	 width="37px" height="36px" viewBox="287.5 378 37 36" style="enable-background:new 287.5 378 37 36;" xml:space="preserve">
<path style="fill:#FFFFFF;" d="M315,386.5h-7.9c-0.1,0-0.3,0.1-0.4,0.1l-10,10c-0.2,0.2-0.2,0.5,0,0.7l7.9,7.9
	c0.2,0.2,0.5,0.2,0.7,0l10-10c0.1-0.1,0.1-0.2,0.1-0.4V387C315.5,386.7,315.3,386.5,315,386.5z M314.5,394.7l-9.5,9.5l-7.2-7.2
	l9.5-9.5h7.2V394.7z M311.8,391.8c0.9,0,1.6-0.7,1.6-1.6c0-0.9-0.7-1.6-1.6-1.6s-1.6,0.7-1.6,1.6C310.2,391.1,311,391.8,311.8,391.8
	z M311.8,389.7c0.3,0,0.5,0.2,0.5,0.5c0,0.3-0.2,0.5-0.5,0.5c-0.3,0-0.5-0.2-0.5-0.5C311.3,389.9,311.5,389.7,311.8,389.7z
	 M323.5,379v34h-35v-34H323.5 M324.5,378h-37v36h37V378L324.5,378z"/>
</svg>
