<?xml version="1.0" encoding="utf-8"?>
<!-- Generator: Adobe Illustrator 16.0.2, SVG Export Plug-In . SVG Version: 6.00 Build 0)  -->
<!DOCTYPE svg PUBLIC "-//W3C//DTD SVG 1.1//EN" "http://www.w3.org/Graphics/SVG/1.1/DTD/svg11.dtd">
<svg version="1.1" id="Слой_1" xmlns="http://www.w3.org/2000/svg" xmlns:xlink="http://www.w3.org/1999/xlink" x="0px" y="0px"
	 width="97.4px" height="100px" viewBox="0 0 97.4 100" style="enable-background:new 0 0 97.4 100;" xml:space="preserve">
<path style="fill:#FFFFFF;" d="M48.6,0c-7.5,0-15.3,5.2-16.9,14.6l0,0l-0.6,5.5H11.3c-0.3,0-0.3,0-0.6,0c-1.3,0.3-2.6,1.3-2.6,2.9
	L0,96.1c0,2,1.3,3.6,3.2,3.9h0.3h90.3c1.9,0,3.6-1.6,3.6-3.6v-0.3L90.3,23c-0.3-1.6-1.6-2.9-3.6-2.9H66.5l-0.7-5.8V14
	C63.9,4.9,56.1,0,48.6,0L48.6,0z M48.6,6.8c4.5,0,9.1,2.6,10.4,8.4l0.3,4.5H37.9l0.6-4.5C39.8,9.4,44.1,7.1,48.6,6.8L48.6,6.8z
	 M14.5,26.9h15.6l-1,8.8c-0.3,2,1.3,3.6,3.3,3.9c1.9,0.3,3.6-1.3,3.9-3.2l0,0l1.3-9.5h22.7l1,9.4c0,1.9,1.9,3.2,3.9,3.2
	s3.2-1.9,3.2-3.9l-1-8.8h16.2l6.5,65.9H7L14.5,26.9L14.5,26.9z"/>
</svg>
