<?xml version="1.0" encoding="utf-8"?>
<!-- Generator: Adobe Illustrator 16.0.2, SVG Export Plug-In . SVG Version: 6.00 Build 0)  -->
<!DOCTYPE svg PUBLIC "-//W3C//DTD SVG 1.1//EN" "http://www.w3.org/Graphics/SVG/1.1/DTD/svg11.dtd">
<svg version="1.1" id="Слой_1" xmlns="http://www.w3.org/2000/svg" xmlns:xlink="http://www.w3.org/1999/xlink" x="0px" y="0px"
	 width="30px" height="30.8px" viewBox="0 0 30 30.8" style="enable-background:new 0 0 30 30.8;" xml:space="preserve">
<path style="fill:#666666;" d="M15,0c-2.3,0-4.7,1.6-5.2,4.5c0,0,0,0,0,0L9.6,6.2H3.5c-0.1,0-0.1,0-0.2,0C2.9,6.3,2.5,6.6,2.5,7.1
	L0,29.6c0,0.6,0.4,1.1,1,1.2c0,0,0.1,0,0.1,0h27.8c0.6,0,1.1-0.5,1.1-1.1c0,0,0-0.1,0-0.1L27.8,7.1c-0.1-0.5-0.5-0.9-1.1-0.9h-6.2
	l-0.2-1.8c0,0,0-0.1,0-0.1C19.7,1.5,17.3,0,15,0L15,0z M15,2.1c1.4,0,2.8,0.8,3.2,2.6l0.1,1.4h-6.6l0.2-1.4
	C12.3,2.9,13.6,2.2,15,2.1L15,2.1z M4.5,8.3h4.8L9,11c-0.1,0.6,0.4,1.1,1,1.2c0.6,0.1,1.1-0.4,1.2-1c0,0,0,0,0,0l0.4-2.9h7l0.3,2.9
	c0,0.6,0.6,1,1.2,1c0.6,0,1-0.6,1-1.2l-0.3-2.7h5l2,20.3H2.2L4.5,8.3L4.5,8.3z"/>
</svg>
