<?xml version="1.0" encoding="utf-8"?>
<!-- Generator: Adobe Illustrator 16.0.2, SVG Export Plug-In . SVG Version: 6.00 Build 0)  -->
<!DOCTYPE svg PUBLIC "-//W3C//DTD SVG 1.1//EN" "http://www.w3.org/Graphics/SVG/1.1/DTD/svg11.dtd">
<svg version="1.1" id="Layer_1" xmlns="http://www.w3.org/2000/svg" xmlns:xlink="http://www.w3.org/1999/xlink" x="0px" y="0px"
	 width="20px" height="20px" viewBox="0 0 20 20" enable-background="new 0 0 20 20" xml:space="preserve">
<path fill="#EA118D" d="M10,0C8.467,0,6.867,1.039,6.533,2.922l0,0L6.4,4.026H2.333c-0.067,0-0.067,0-0.134,0
	c-0.267,0.064-0.533,0.26-0.533,0.584L0,19.221C0,19.611,0.267,19.936,0.667,20h0.067h18.533c0.4,0,0.733-0.324,0.733-0.715v-0.064
	l-1.467-14.61C18.467,4.286,18.2,4.026,17.8,4.026h-4.133l-0.134-1.169V2.792C13.134,0.974,11.533,0,10,0L10,0z M10,1.364
	c0.934,0,1.866,0.52,2.134,1.688L12.2,3.961H7.8l0.133-0.909C8.2,1.883,9.067,1.429,10,1.364L10,1.364z M3,5.39h3.2L6,7.143
	c-0.067,0.39,0.267,0.714,0.667,0.779c0.4,0.064,0.733-0.26,0.8-0.649l0,0L7.733,5.39h4.666l0.201,1.883
	c0,0.39,0.399,0.649,0.799,0.649c0.4,0,0.667-0.39,0.667-0.779l-0.2-1.753H17.2l1.333,13.181H1.467L3,5.39L3,5.39z"/>
</svg>
