<?xml version="1.0" encoding="utf-8"?>
<!-- Generator: Adobe Illustrator 16.0.2, SVG Export Plug-In . SVG Version: 6.00 Build 0)  -->
<!DOCTYPE svg PUBLIC "-//W3C//DTD SVG 1.1//EN" "http://www.w3.org/Graphics/SVG/1.1/DTD/svg11.dtd">
<svg version="1.1" id="Layer_1" xmlns="http://www.w3.org/2000/svg" xmlns:xlink="http://www.w3.org/1999/xlink" x="0px" y="0px"
	 width="30px" height="70px" viewBox="0 0 30 70" enable-background="new 0 0 30 70" xml:space="preserve">
<path fill="#EA118D" d="M15.854,7.126c-1.664,0-3.4,1.158-3.763,3.256l0,0l-0.144,1.229H7.533c-0.072,0-0.072,0-0.145,0
	c-0.29,0.073-0.578,0.29-0.578,0.652L5,28.544c0,0.437,0.29,0.798,0.724,0.871h0.072h20.116c0.436,0,0.797-0.362,0.797-0.796v-0.075
	l-1.592-16.28c-0.072-0.362-0.361-0.652-0.797-0.652h-4.486l-0.145-1.302v-0.073C19.256,8.212,17.52,7.126,15.854,7.126
	L15.854,7.126z M15.854,8.646c1.013,0,2.027,0.579,2.316,1.881l0.072,1.013h-4.776l0.145-1.013
	C13.901,9.225,14.841,8.718,15.854,8.646L15.854,8.646z M8.256,13.133h3.473l-0.217,1.953c-0.073,0.435,0.289,0.796,0.723,0.869
	c0.435,0.073,0.797-0.29,0.869-0.723l0,0l0.289-2.098h5.065l0.217,2.098c0,0.434,0.436,0.723,0.869,0.723s0.723-0.434,0.723-0.869
	l-0.217-1.953h3.617l1.449,14.688H6.592L8.256,13.133L8.256,13.133z"/>
<path fill="#010101" d="M15.854,40.635c-1.665,0-3.4,1.158-3.763,3.256l0,0l-0.144,1.229H7.534c-0.073,0-0.073,0-0.145,0
	c-0.29,0.072-0.578,0.288-0.578,0.651L5.002,62.046c0,0.436,0.29,0.799,0.723,0.87h0.073h20.11c0.434,0,0.797-0.363,0.797-0.797
	v-0.073l-1.592-16.274c-0.072-0.363-0.363-0.651-0.795-0.651h-4.486l-0.143-1.302v-0.072C19.254,41.719,17.516,40.635,15.854,40.635
	L15.854,40.635z M15.854,42.152c1.013,0,2.025,0.58,2.314,1.882l0.072,1.015h-4.774l0.145-1.015
	C13.9,42.732,14.84,42.227,15.854,42.152L15.854,42.152z M8.257,46.639h3.472l-0.217,1.953c-0.072,0.436,0.29,0.795,0.724,0.867
	c0.434,0.072,0.795-0.288,0.868-0.724l0,0l0.289-2.097h5.065l0.215,2.097c0,0.436,0.436,0.724,0.869,0.724s0.723-0.432,0.723-0.867
	l-0.217-1.953h3.617l1.447,14.685H6.594L8.257,46.639L8.257,46.639z"/>
</svg>
