<?xml version="1.0" encoding="utf-8"?>
<!-- Generator: Adobe Illustrator 16.0.2, SVG Export Plug-In . SVG Version: 6.00 Build 0)  -->
<!DOCTYPE svg PUBLIC "-//W3C//DTD SVG 1.1//EN" "http://www.w3.org/Graphics/SVG/1.1/DTD/svg11.dtd">
<svg version="1.1" id="Layer_1" xmlns="http://www.w3.org/2000/svg" xmlns:xlink="http://www.w3.org/1999/xlink" x="0px" y="0px"
	 width="20px" height="20px" viewBox="0 0 20 20" enable-background="new 0 0 20 20" xml:space="preserve">
<path fill="#010101" d="M10,0C8.467,0,6.867,1.04,6.533,2.923l0,0L6.401,4.028H2.333c-0.066,0-0.066,0-0.132,0
	C1.933,4.09,1.665,4.285,1.665,4.611L0,19.221C0,19.611,0.268,19.932,0.668,20h0.066h18.534C19.666,20,20,19.678,20,19.287v-0.066
	L18.532,4.611c-0.065-0.326-0.334-0.583-0.729-0.583h-4.139l-0.132-1.171V2.792C13.135,0.973,11.533,0,10,0L10,0z M10,1.362
	c0.932,0,1.865,0.52,2.136,1.689l0.062,0.908H7.799l0.136-0.908C8.198,1.882,9.067,1.43,10,1.362L10,1.362z M3.001,5.389h3.198
	L6.001,7.144c-0.068,0.391,0.264,0.713,0.664,0.78c0.4,0.063,0.734-0.262,0.801-0.652l0,0l0.267-1.882h4.666l0.203,1.882
	c0,0.39,0.396,0.652,0.799,0.652c0.398,0,0.668-0.389,0.668-0.78l-0.202-1.754h3.331l1.335,13.181H1.468L3.001,5.389L3.001,5.389z"
	/>
</svg>
