<?xml version="1.0" encoding="utf-8"?>
<!-- Generator: Adobe Illustrator 16.0.2, SVG Export Plug-In . SVG Version: 6.00 Build 0)  -->
<!DOCTYPE svg PUBLIC "-//W3C//DTD SVG 1.1//EN" "http://www.w3.org/Graphics/SVG/1.1/DTD/svg11.dtd">
<svg version="1.1" id="Слой_1" xmlns="http://www.w3.org/2000/svg" xmlns:xlink="http://www.w3.org/1999/xlink" x="0px" y="0px"
	 width="100px" height="112px" viewBox="0 0 100 112" style="enable-background:new 0 0 100 112;" xml:space="preserve">
<g style="opacity:0.29;">
	<path style="fill:#959595;" d="M50,2.7c2,0,3.9,0.5,5.6,1.5l36.2,21c3.4,2,5.6,5.7,5.6,9.8v42c0,4-2.1,7.8-5.6,9.8l-36.2,21
		c-1.7,1-3.6,1.5-5.6,1.5s-3.9-0.5-5.6-1.5l-36.2-21c-3.4-2-5.6-5.7-5.6-9.8V35c0-4,2.1-7.8,5.6-9.8l36.2-21C46.1,3.2,48,2.7,50,2.7
		 M50,0c-2.4,0-4.8,0.6-6.9,1.9l-36.2,21C2.6,25.4,0,30,0,35v42c0,5,2.6,9.6,6.9,12.1l36.2,21c2.1,1.2,4.5,1.9,6.9,1.9
		c2.4,0,4.8-0.6,6.9-1.9l36.2-21C97.4,86.6,100,82,100,77V35c0-5-2.6-9.6-6.9-12.1l-36.2-21C54.8,0.6,52.4,0,50,0L50,0z"/>
</g>
<path style="opacity:0.29;fill:#494949;enable-background:new    ;" d="M28,51.3h16c0.7,0,1.3-0.6,1.3-1.3V34c0-0.7-0.6-1.3-1.3-1.3
	H28c-0.7,0-1.3,0.6-1.3,1.3v16C26.7,50.7,27.3,51.3,28,51.3z"/>
<path style="opacity:0.29;fill:#494949;enable-background:new    ;" d="M56,51.3h16c0.7,0,1.3-0.6,1.3-1.3V34c0-0.7-0.6-1.3-1.3-1.3
	H56c-0.7,0-1.3,0.6-1.3,1.3v16C54.7,50.7,55.3,51.3,56,51.3z"/>
<path style="opacity:0.29;fill:#494949;enable-background:new    ;" d="M28,79.3h16c0.7,0,1.3-0.6,1.3-1.3V62c0-0.7-0.6-1.3-1.3-1.3
	H28c-0.7,0-1.3,0.6-1.3,1.3v16C26.7,78.7,27.3,79.3,28,79.3z"/>
<path style="opacity:0.29;fill:#494949;enable-background:new    ;" d="M56,79.3h16c0.7,0,1.3-0.6,1.3-1.3V62c0-0.7-0.6-1.3-1.3-1.3
	H56c-0.7,0-1.3,0.6-1.3,1.3v16C54.7,78.7,55.3,79.3,56,79.3z"/>
<path style="opacity:0.29;fill:#959595;enable-background:new    ;" d="M44,30H28c-2.2,0-4,1.8-4,4v16c0,2.2,1.8,4,4,4h16
	c2.2,0,4-1.8,4-4V34C48,31.8,46.2,30,44,30z M45.3,50c0,0.7-0.6,1.3-1.3,1.3H28c-0.7,0-1.3-0.6-1.3-1.3V34c0-0.7,0.6-1.3,1.3-1.3h16
	c0.7,0,1.3,0.6,1.3,1.3V50z"/>
<path style="opacity:0.29;fill:#959595;enable-background:new    ;" d="M72,30H56c-2.2,0-4,1.8-4,4v16c0,2.2,1.8,4,4,4h16
	c2.2,0,4-1.8,4-4V34C76,31.8,74.2,30,72,30z M73.3,50c0,0.7-0.6,1.3-1.3,1.3H56c-0.7,0-1.3-0.6-1.3-1.3V34c0-0.7,0.6-1.3,1.3-1.3h16
	c0.7,0,1.3,0.6,1.3,1.3V50z"/>
<path style="opacity:0.29;fill:#959595;enable-background:new    ;" d="M44,58H28c-2.2,0-4,1.8-4,4v16c0,2.2,1.8,4,4,4h16
	c2.2,0,4-1.8,4-4V62C48,59.8,46.2,58,44,58z M45.3,78c0,0.7-0.6,1.3-1.3,1.3H28c-0.7,0-1.3-0.6-1.3-1.3V62c0-0.7,0.6-1.3,1.3-1.3h16
	c0.7,0,1.3,0.6,1.3,1.3V78z"/>
<path style="opacity:0.29;fill:#959595;enable-background:new    ;" d="M72,58H56c-2.2,0-4,1.8-4,4v16c0,2.2,1.8,4,4,4h16
	c2.2,0,4-1.8,4-4V62C76,59.8,74.2,58,72,58z M73.3,78c0,0.7-0.6,1.3-1.3,1.3H56c-0.7,0-1.3-0.6-1.3-1.3V62c0-0.7,0.6-1.3,1.3-1.3h16
	c0.7,0,1.3,0.6,1.3,1.3V78z"/>
</svg>
