<?xml version="1.0" encoding="utf-8"?>
<!-- Generator: Adobe Illustrator 17.1.0, SVG Export Plug-In . SVG Version: 6.00 Build 0)  -->
<!DOCTYPE svg PUBLIC "-//W3C//DTD SVG 1.1//EN" "http://www.w3.org/Graphics/SVG/1.1/DTD/svg11.dtd">
<svg version="1.1" id="Layer_1" xmlns="http://www.w3.org/2000/svg" xmlns:xlink="http://www.w3.org/1999/xlink" x="0px" y="0px"
	 width="37px" height="36px" viewBox="287.5 378 37 36" style="enable-background:new 287.5 378 37 36;" xml:space="preserve">
<path style="fill:#FFFFFF;" d="M324.5,378h-37v36h37V378L324.5,378z M323.5,379v34h-35v-34H323.5 M309,387.4c0,0.4-0.1,1-0.2,1.7
	c-0.2,0.7-0.3,1.5-0.6,2.5c-0.2,0.9-0.5,2-0.7,3.3c-0.3,1.3-0.6,3-0.9,4.9h-1.2c-0.3-2-0.6-3.6-0.9-5c-0.3-1.3-0.5-2.4-0.7-3.3
	c-0.2-0.8-0.4-1.6-0.5-2.4c-0.2-0.8-0.2-1.4-0.2-1.8c0-0.8,0.3-1.5,0.9-2c0.6-0.6,1.3-0.8,2.1-0.8c0.8,0,1.5,0.3,2.1,0.8
	C308.7,385.9,309,386.6,309,387.4z M309,404.6c0,0.8-0.3,1.5-0.9,2c-0.6,0.6-1.3,0.8-2.1,0.8c-0.8,0-1.5-0.3-2.1-0.8
	c-0.6-0.6-0.9-1.2-0.9-2s0.3-1.5,0.9-2c0.6-0.6,1.3-0.9,2.1-0.9c0.8,0,1.5,0.3,2.1,0.9C308.7,403.1,309,403.8,309,404.6z"/>
</svg>
