<?xml version="1.0" encoding="utf-8"?>
<!-- Generator: Adobe Illustrator 16.0.2, SVG Export Plug-In . SVG Version: 6.00 Build 0)  -->
<!DOCTYPE svg PUBLIC "-//W3C//DTD SVG 1.1//EN" "http://www.w3.org/Graphics/SVG/1.1/DTD/svg11.dtd">
<svg version="1.1" id="Слой_1" xmlns="http://www.w3.org/2000/svg" xmlns:xlink="http://www.w3.org/1999/xlink" x="0px" y="0px"
	 width="100px" height="112px" viewBox="0 0 100 112" enable-background="new 0 0 100 112" xml:space="preserve">
<g>
	<g opacity="0.29">
		<path fill="#959595" d="M50,2.701c2,0,3.901,0.5,5.599,1.5l36.201,21c3.4,2,5.602,5.699,5.602,9.799v42c0,4-2.102,7.8-5.602,9.8
			l-36.201,21c-1.697,1-3.599,1.5-5.599,1.5s-3.9-0.5-5.601-1.5L8.2,86.8C4.799,84.8,2.6,81.099,2.6,77V35
			c0-4,2.101-7.799,5.601-9.799l36.199-21C46.1,3.201,48,2.701,50,2.701 M50,0c-2.4,0-4.8,0.6-6.9,1.9l-36.2,21C2.6,25.4,0,30,0,35
			v42c0,5,2.6,9.599,6.899,12.099l36.2,21C45.2,111.3,47.6,112,50,112c2.401,0,4.8-0.599,6.901-1.901l36.197-21
			C97.401,86.599,100,82,100,77V35c0-5-2.599-9.6-6.901-12.1l-36.197-21C54.8,0.6,52.401,0,50,0L50,0z"/>
	</g>
	<g>
		<path opacity="0.29" fill-rule="evenodd" clip-rule="evenodd" fill="#494949" d="M35.333,70.667h29.333
			c0.736,0,1.334-0.598,1.334-1.334V42.667c0-0.735-0.598-1.333-1.334-1.333H35.333c-0.735,0-1.333,0.598-1.333,1.333v26.666
			C34,70.069,34.598,70.667,35.333,70.667z"/>
		<path opacity="0.29" fill-rule="evenodd" clip-rule="evenodd" fill="#494949" d="M20.667,65.333H26V45.334h-5.334
			c-0.734,0-1.333,0.598-1.333,1.333V64C19.333,64.735,19.932,65.333,20.667,65.333z"/>
		<path opacity="0.29" fill-rule="evenodd" clip-rule="evenodd" fill="#494949" d="M80.666,64V46.667
			c0-0.735-0.598-1.333-1.332-1.333H74v19.999h5.334C80.068,65.333,80.666,64.735,80.666,64z"/>
		<path opacity="0.29" fill="#959595" d="M64.666,41.334c0.736,0,1.334,0.598,1.334,1.333v26.666c0,0.736-0.598,1.334-1.334,1.334
			H35.333c-0.735,0-1.333-0.598-1.333-1.334V42.667c0-0.735,0.598-1.333,1.333-1.333H64.666 M64.666,38.667H35.333
			c-2.21,0-4,1.79-4,4v26.666c0,2.209,1.79,4,4,4h29.333c2.209,0,4-1.791,4-4V42.667C68.666,40.457,66.875,38.667,64.666,38.667
			L64.666,38.667z"/>
		<path opacity="0.29" fill="#959595" d="M79.334,45.334c0.734,0,1.332,0.598,1.332,1.333V64c0,0.735-0.598,1.333-1.332,1.333H74
			V45.334H79.334 M79.334,42.667h-8V68h8c2.209,0,4-1.792,4-4V46.667C83.334,44.457,81.543,42.667,79.334,42.667L79.334,42.667z"/>
		<path opacity="0.29" fill="#959595" d="M26,45.334v19.999h-5.334c-0.734,0-1.333-0.598-1.333-1.333V46.667
			c0-0.735,0.599-1.333,1.333-1.333H26 M28.667,42.667h-8c-2.209,0-4,1.79-4,4V64c0,2.208,1.791,4,4,4h8V42.667L28.667,42.667z"/>
	</g>
</g>
</svg>
