<?xml version="1.0" encoding="utf-8"?>
<!-- Generator: Adobe Illustrator 17.1.0, SVG Export Plug-In . SVG Version: 6.00 Build 0)  -->
<!DOCTYPE svg PUBLIC "-//W3C//DTD SVG 1.1//EN" "http://www.w3.org/Graphics/SVG/1.1/DTD/svg11.dtd">
<svg version="1.1" id="Layer_1" xmlns="http://www.w3.org/2000/svg" xmlns:xlink="http://www.w3.org/1999/xlink" x="0px" y="0px"
	 width="37px" height="36px" viewBox="287.5 378 37 36" style="enable-background:new 287.5 378 37 36;" xml:space="preserve">
<path style="fill:#FFFFFF;" d="M324.5,378h-37v36h37V378L324.5,378z M323.5,379v34h-35v-34H323.5 M307.2,405.9
	c-0.2,0-0.3-0.1-0.3-0.3l-0.1-6.5c0-0.1,0-0.2,0.1-0.2c0.1-0.1,5.5-6.4,5.9-12h-13.5c0.4,5.7,6.1,11.9,6.1,12
	c0.1,0.1,0.1,0.1,0.1,0.2v6.5c0,0.2-0.1,0.3-0.3,0.3c-0.2,0-0.3-0.1-0.3-0.3v-6.4c-0.3-0.4-1.7-1.9-3-4c-2.1-3.2-3.2-6.1-3.2-8.7
	c0-0.1,0-0.2,0.1-0.2c0.1-0.1,0.1-0.1,0.2-0.1h14.2c0.1,0,0.2,0,0.2,0.1c0.1,0.1,0.1,0.1,0.1,0.2c-0.1,2.5-1.1,5.4-3.1,8.7
	c-1.3,2.1-2.6,3.6-2.9,4l0.1,6.4C307.5,405.7,307.3,405.9,307.2,405.9C307.2,405.9,307.2,405.9,307.2,405.9z M308.6,405.9h-5.3
	c-0.2,0-0.3-0.1-0.3-0.3s0.1-0.3,0.3-0.3h5.3c0.2,0,0.3,0.1,0.3,0.3S308.8,405.9,308.6,405.9z M311.3,395.8c-0.1,0-0.3-0.1-0.3-0.2
	c0-0.2,0.1-0.3,0.2-0.4c1.8-0.5,3.6-1.9,3.6-3.5c0-0.9-0.4-1.8-1-2.5c-0.1-0.1-0.1-0.3,0-0.5c0.1-0.1,0.3-0.1,0.5,0
	c0.7,0.8,1.2,1.8,1.2,2.9C315.5,393.7,313.4,395.3,311.3,395.8C311.3,395.8,311.3,395.8,311.3,395.8z M300.7,395.8
	C300.7,395.8,300.7,395.8,300.7,395.8c-2.1-0.6-4.2-2.2-4.2-4.1c0-1.1,0.4-2.1,1.2-2.9c0.1-0.1,0.3-0.1,0.5,0c0.1,0.1,0.1,0.3,0,0.5
	c-0.6,0.7-1,1.6-1,2.5c0,1.6,1.9,3,3.6,3.5c0.2,0,0.3,0.2,0.2,0.4C301,395.8,300.9,395.8,300.7,395.8z"/>
</svg>
