<?xml version="1.0" encoding="utf-8"?>
<!-- Generator: Adobe Illustrator 16.0.2, SVG Export Plug-In . SVG Version: 6.00 Build 0)  -->
<!DOCTYPE svg PUBLIC "-//W3C//DTD SVG 1.1//EN" "http://www.w3.org/Graphics/SVG/1.1/DTD/svg11.dtd">
<svg version="1.1" id="Слой_1" xmlns="http://www.w3.org/2000/svg" xmlns:xlink="http://www.w3.org/1999/xlink" x="0px" y="0px"
	 width="30px" height="23.4px" viewBox="0 0 30 23.4" style="enable-background:new 0 0 30 23.4;" xml:space="preserve">
<g>
	<path style="fill:#666666;" d="M25.9,11.1c-0.3,0-0.5,0.2-0.5,0.5v9.1c0,0.9-0.7,1.6-1.6,1.6H6.2c-0.9,0-1.6-0.7-1.6-1.6v-9.1
		c0-0.3-0.2-0.5-0.5-0.5c-0.3,0-0.5,0.2-0.5,0.5v9.1c0,1.5,1.2,2.7,2.7,2.7h17.5c1.5,0,2.7-1.2,2.7-2.7v-9.1
		C26.4,11.4,26.2,11.1,25.9,11.1z"/>
	<path style="fill:#666666;" d="M29.8,8.6L16.9,0.6c-1.2-0.7-3-0.7-4.2,0L0.2,8.6C0,8.8-0.1,9.1,0.1,9.4s0.5,0.3,0.7,0.2l12.5-8.1
		c0.8-0.5,2.2-0.5,3,0l12.8,8.1c0.1,0.1,0.2,0.1,0.3,0.1c0.2,0,0.4-0.1,0.5-0.2C30.1,9.1,30,8.8,29.8,8.6z"/>
</g>
</svg>
