<?xml version="1.0" encoding="utf-8"?>
<!-- Generator: Adobe Illustrator 16.0.2, SVG Export Plug-In . SVG Version: 6.00 Build 0)  -->
<!DOCTYPE svg PUBLIC "-//W3C//DTD SVG 1.1//EN" "http://www.w3.org/Graphics/SVG/1.1/DTD/svg11.dtd">
<svg version="1.1" id="Слой_1" xmlns="http://www.w3.org/2000/svg" xmlns:xlink="http://www.w3.org/1999/xlink" x="0px" y="0px"
	 width="40px" height="43.6px" viewBox="0 0 40 43.6" style="enable-background:new 0 0 40 43.6;" xml:space="preserve">
<g>
	<g>
		<path style="fill:#F17B24;" d="M20,1.2c0.7,0,1.5,0.2,2.2,0.6L36.6,10c1.3,0.7,2.2,2.2,2.2,3.6V30c0,1.5-0.8,2.9-2.2,3.6
			l-14.4,8.2c-0.6,0.4-1.5,0.6-2.2,0.6s-1.5-0.2-2.2-0.6L3.4,33.6c-1.3-0.8-2.2-2.2-2.2-3.6V13.6c0-1.5,0.8-2.9,2.2-3.6l14.4-8.2
			C18.5,1.4,19.3,1.2,20,1.2 M20,0c-1,0-1.9,0.2-2.8,0.7L2.8,9C1.1,10,0,11.7,0,13.6V30c0,1.9,1.1,3.8,2.8,4.7l14.4,8.2
			c0.8,0.5,1.8,0.7,2.8,0.7s1.9-0.2,2.8-0.7l14.4-8.2c1.7-1,2.8-2.8,2.8-4.7V13.6c0-1.9-1.1-3.8-2.8-4.7L22.8,0.7
			C21.9,0.2,21,0,20,0L20,0z"/>
	</g>
	<g>
		<path style="fill:#F17B24;" d="M20.1,10.6c0.5,0,1,0.2,1.5,0.6c0.4,0.4,0.6,0.8,0.6,1.5c0,0.4,0,1-0.2,1.6
			c-0.1,0.7-0.4,1.7-0.6,2.5c-0.2,1-0.5,2.2-0.7,3.5c-0.1,0.8-0.4,1.7-0.5,2.7c-0.2-1-0.4-1.9-0.5-2.8c-0.2-1.3-0.5-2.5-0.7-3.5
			c-0.2-0.8-0.4-1.7-0.5-2.5c-0.2-1-0.2-1.5-0.2-1.7c0-0.6,0.2-1,0.6-1.5C19.1,10.8,19.6,10.6,20.1,10.6 M20.1,28.8
			c0.5,0,1,0.2,1.3,0.6c0.5,0.5,0.6,0.8,0.6,1.5s-0.2,1-0.6,1.5C21,32.8,20.6,33,20.1,33c-0.5,0-1-0.2-1.5-0.6
			C18.2,32,18,31.6,18,30.9s0.2-1,0.6-1.5C19.1,29,19.6,28.8,20.1,28.8 M20.1,9.6c-0.8,0-1.6,0.2-2.2,0.8C17.3,11,17,11.8,17,12.6
			c0,0.5,0.1,1,0.2,1.8c0.1,0.8,0.4,1.7,0.5,2.5c0.2,1,0.5,2.1,0.7,3.5c0.2,1.5,0.6,3.2,0.8,5.2h1.3c0.2-2.1,0.6-3.9,0.8-5.2
			c0.2-1.5,0.5-2.5,0.7-3.5s0.5-1.8,0.6-2.7c0.1-0.7,0.2-1.3,0.2-1.8c0-0.8-0.2-1.6-1-2.2C21.6,9.9,20.9,9.6,20.1,9.6L20.1,9.6z
			 M20.1,27.8c-0.8,0-1.6,0.2-2.2,1c-0.6,0.6-0.8,1.3-0.8,2.2c0,0.8,0.2,1.6,0.8,2.2c0.6,0.6,1.3,0.8,2.2,0.8c0.7,0,1.6-0.2,2.1-0.8
			c0.6-0.6,0.8-1.3,0.8-2.2c0-0.8-0.2-1.6-0.8-2.2C21.6,28,20.9,27.8,20.1,27.8L20.1,27.8z"/>
	</g>
</g>
</svg>
