<?xml version="1.0" encoding="utf-8"?>
<!-- Generator: Adobe Illustrator 16.0.2, SVG Export Plug-In . SVG Version: 6.00 Build 0)  -->
<!DOCTYPE svg PUBLIC "-//W3C//DTD SVG 1.1//EN" "http://www.w3.org/Graphics/SVG/1.1/DTD/svg11.dtd">
<svg version="1.1" id="Слой_1" xmlns="http://www.w3.org/2000/svg" xmlns:xlink="http://www.w3.org/1999/xlink" x="0px" y="0px"
	 width="40px" height="43.6px" viewBox="0 0 40 43.6" style="enable-background:new 0 0 40 43.6;" xml:space="preserve">
<g>
	<g>
		<path style="fill:#DFB125;" d="M20,1.2c0.7,0,1.5,0.2,2.2,0.6L36.6,10c1.3,0.7,2.2,2.2,2.2,3.6V30c0,1.5-0.8,2.9-2.2,3.6
			l-14.4,8.2c-0.6,0.4-1.5,0.6-2.2,0.6s-1.5-0.2-2.2-0.6L3.4,33.6c-1.3-0.8-2.2-2.2-2.2-3.6V13.6c0-1.5,0.8-2.9,2.2-3.6l14.4-8.2
			C18.5,1.4,19.3,1.2,20,1.2 M20,0c-1,0-1.9,0.2-2.8,0.7L2.8,9C1.1,10,0,11.7,0,13.6V30c0,1.9,1.1,3.8,2.8,4.7l14.4,8.2
			c0.8,0.5,1.8,0.7,2.8,0.7s1.9-0.2,2.8-0.7l14.4-8.2c1.7-1,2.8-2.8,2.8-4.7V13.6c0-1.9-1.1-3.8-2.8-4.7L22.8,0.7
			C21.9,0.2,21,0,20,0L20,0z"/>
	</g>
	<g>
		<path style="fill:#DFB125;" d="M14.8,28.5h-1.1l-3.5-10.3v10.3h-1V15.2h1.1l3.5,10.3V15.2h1.1v13.3H14.8z"/>
		<path style="fill:#DFB125;" d="M21,22.3h-3.2V27h3.7v1.5h-4.7V15.2h4.6v1.5h-3.5v4.4h3.2v1.2H21z"/>
		<path style="fill:#DFB125;" d="M24.5,24.3l0.1,1.5l0.1-1.3l1.3-9.3h1l1.3,9.3l0.1,1.3l0.1-1.6l1.1-9.1h1.1L29,28.4h-1l-1.5-9.7
			v-0.6l0.1,0.7L25,28.5h-1l-1.7-13.3h1.2L24.5,24.3z"/>
	</g>
</g>
</svg>
