<?xml version="1.0" encoding="utf-8"?>
<!-- Generator: Adobe Illustrator 16.0.2, SVG Export Plug-In . SVG Version: 6.00 Build 0)  -->
<!DOCTYPE svg PUBLIC "-//W3C//DTD SVG 1.1//EN" "http://www.w3.org/Graphics/SVG/1.1/DTD/svg11.dtd">
<svg version="1.1" id="Слой_1" xmlns="http://www.w3.org/2000/svg" xmlns:xlink="http://www.w3.org/1999/xlink" x="0px" y="0px"
	 width="40px" height="43.6px" viewBox="0 0 40 43.6" style="enable-background:new 0 0 40 43.6;" xml:space="preserve">
<g>
	<g>
		<path style="fill:#A12485;" d="M20,1.2c0.7,0,1.5,0.2,2.2,0.6L36.6,10c1.3,0.7,2.2,2.2,2.2,3.6V30c0,1.5-0.8,2.9-2.2,3.6
			l-14.4,8.2c-0.6,0.4-1.5,0.6-2.2,0.6s-1.5-0.2-2.2-0.6L3.4,33.6c-1.3-0.8-2.2-2.2-2.2-3.6V13.6c0-1.5,0.8-2.9,2.2-3.6l14.4-8.2
			C18.5,1.4,19.3,1.2,20,1.2 M20,0c-1,0-1.9,0.2-2.8,0.7L2.8,9C1.1,10,0,11.7,0,13.6V30c0,1.9,1.1,3.8,2.8,4.7l14.4,8.2
			c0.8,0.5,1.8,0.7,2.8,0.7s1.9-0.2,2.8-0.7l14.4-8.2c1.7-1,2.8-2.8,2.8-4.7V13.6c0-1.9-1.1-3.8-2.8-4.7L22.8,0.7
			C21.9,0.2,21,0,20,0L20,0z"/>
	</g>
	<g>
		<path style="fill:#A12485;" d="M12.5,25c0-0.6-0.1-1.2-0.4-1.5c-0.2-0.4-0.6-0.6-1.2-1c-0.5-0.4-1-0.7-1.2-1.1
			C9.3,21,9.1,20.7,9,20.2c-0.2-0.5-0.2-1-0.2-1.6c0-1,0.2-1.8,0.6-2.5c0.4-0.6,1-1,1.7-1c0.5,0,1,0.1,1.3,0.5
			c0.4,0.4,0.6,0.8,0.8,1.5c0.2,0.6,0.4,1.2,0.4,1.9h-1.1c0-0.8-0.1-1.5-0.4-1.8c-0.2-0.4-0.6-0.6-1.1-0.6c-0.4,0-0.7,0.2-1,0.6
			c-0.2,0.2-0.4,0.7-0.4,1.5c0,0.6,0.1,1,0.4,1.3c0.3,0.3,0.6,0.7,1.2,1c0.8,0.4,1.3,1,1.7,1.6s0.5,1.5,0.5,2.4
			c0,1.1-0.2,1.8-0.6,2.5c-0.4,0.6-1,1-1.7,1c-0.5,0-1-0.1-1.3-0.5c-0.4-0.4-0.7-0.8-1-1.3c-0.2-0.8-0.3-1.4-0.3-2.2h1.1
			c0,0.8,0.1,1.5,0.4,1.8c0.2,0.5,0.7,0.6,1.1,0.6s0.7-0.2,1-0.6C12.4,26,12.5,25.6,12.5,25z"/>
		<path style="fill:#A12485;" d="M18.8,24.8H16l-0.6,3.4h-1.1L17,15.4h0.8l2.7,12.8h-1.1L18.8,24.8z M16.2,23.5h2.3l-1.2-5.9
			L16.2,23.5z"/>
		<path style="fill:#A12485;" d="M22.7,26.9H26v1.3h-4.2v-13h1.1L22.7,26.9L22.7,26.9z"/>
		<path style="fill:#A12485;" d="M31,22.3h-2.9v4.6h3.4v1.3h-4.4v-13h4.4v1.3h-3.4v4.1H31V22.3z"/>
	</g>
</g>
</svg>
