<?xml version="1.0" encoding="utf-8"?>
<!-- Generator: Adobe Illustrator 16.0.2, SVG Export Plug-In . SVG Version: 6.00 Build 0)  -->
<!DOCTYPE svg PUBLIC "-//W3C//DTD SVG 1.1//EN" "http://www.w3.org/Graphics/SVG/1.1/DTD/svg11.dtd">
<svg version="1.1" id="Слой_1" xmlns="http://www.w3.org/2000/svg" xmlns:xlink="http://www.w3.org/1999/xlink" x="0px" y="0px"
	 width="40px" height="43.6px" viewBox="0 0 40 43.6" style="enable-background:new 0 0 40 43.6;" xml:space="preserve">
<g>
	<g>
		<path style="fill:#206FA1;" d="M20,1.2c0.7,0,1.5,0.2,2.2,0.6L36.6,10c1.3,0.7,2.2,2.2,2.2,3.6V30c0,1.5-0.8,2.9-2.2,3.6
			l-14.4,8.2c-0.6,0.4-1.5,0.6-2.2,0.6s-1.5-0.2-2.2-0.6L3.4,33.6c-1.3-0.8-2.2-2.2-2.2-3.6V13.6c0-1.5,0.8-2.9,2.2-3.6l14.4-8.2
			C18.5,1.4,19.3,1.2,20,1.2 M20,0c-1,0-1.9,0.2-2.8,0.7L2.8,9C1.1,10,0,11.7,0,13.6V30c0,1.9,1.1,3.8,2.8,4.7l14.4,8.2
			c0.8,0.5,1.8,0.7,2.8,0.7s1.9-0.2,2.8-0.7l14.4-8.2c1.7-1,2.8-2.8,2.8-4.7V13.6c0-1.9-1.1-3.8-2.8-4.7L22.8,0.7
			C21.9,0.2,21,0,20,0L20,0z"/>
	</g>
	<g>
		<path style="fill:#206FA1;" d="M22.8,33.3h-5.7c-0.2,0-0.4-0.1-0.4-0.4c0-0.2,0.1-0.4,0.4-0.4h5.7c0.2,0,0.4,0.1,0.4,0.4
			C23.3,33.2,23,33.3,22.8,33.3"/>
		<g>
			<path style="fill:#206FA1;" d="M21.3,33.3c-0.2,0-0.4-0.1-0.4-0.4l-0.1-7.3c0-0.1,0-0.1,0.1-0.2s6.1-7,6.4-13.3H12.8
				c0.4,6.3,6.6,13.2,6.7,13.3s0.1,0.1,0.1,0.2v7.2c0,0.2-0.1,0.4-0.4,0.4c-0.1,0-0.4-0.1-0.4-0.4v-7c-0.3-0.4-1.7-2.2-3.2-4.4
				c-2.3-3.5-3.5-6.8-3.5-9.6c0-0.1,0-0.2,0.1-0.2c0-0.1,0.1-0.1,0.2-0.1h15.3c0.1,0,0.2,0,0.2,0.1c0.1,0.1,0.1,0.1,0.1,0.2
				c-0.1,2.8-1.2,6.1-3.4,9.6c-1.5,2.3-2.8,4-3.2,4.4l0.1,7C21.7,33.2,21.5,33.3,21.3,33.3L21.3,33.3"/>
			<path style="fill:#206FA1;" d="M25.8,22.2c-0.1,0-0.2-0.1-0.4-0.2c0-0.2,0-0.4,0.2-0.4c1.9-0.6,4-2.1,4-3.9
				c0-1.1-0.4-2.1-1.1-2.8c-0.1-0.1-0.1-0.4,0-0.5c0.1-0.1,0.4-0.1,0.5,0c0.8,0.8,1.3,2.1,1.3,3.3C30.3,19.9,28,21.6,25.8,22.2
				C25.8,22.2,25.8,22.2,25.8,22.2"/>
			<path style="fill:#206FA1;" d="M14.3,22.2C14.3,22.2,14.3,22.2,14.3,22.2c-2.3-0.6-4.6-2.3-4.6-4.5c0-1.2,0.5-2.4,1.3-3.3
				c0.2-0.1,0.4-0.1,0.5,0c0.1,0.1,0.1,0.4,0,0.5c-0.7,0.7-1.1,1.7-1.1,2.8c0,1.8,2.1,3.3,4,3.9c0.2,0,0.2,0.2,0.2,0.4
				C14.5,22.2,14.4,22.2,14.3,22.2"/>
		</g>
	</g>
</g>
</svg>
