<?xml version="1.0" encoding="utf-8"?>
<!-- Generator: Adobe Illustrator 16.0.2, SVG Export Plug-In . SVG Version: 6.00 Build 0)  -->
<!DOCTYPE svg PUBLIC "-//W3C//DTD SVG 1.1//EN" "http://www.w3.org/Graphics/SVG/1.1/DTD/svg11.dtd">
<svg version="1.1" id="Слой_1" xmlns="http://www.w3.org/2000/svg" xmlns:xlink="http://www.w3.org/1999/xlink" x="0px" y="0px"
	 width="40px" height="43.6px" viewBox="0 0 40 43.6" style="enable-background:new 0 0 40 43.6;" xml:space="preserve">
<g>
	<g>
		<path style="fill:#1EA184;" d="M20,1.2c0.7,0,1.5,0.2,2.2,0.6L36.6,10c1.3,0.7,2.2,2.2,2.2,3.6V30c0,1.5-0.8,2.9-2.2,3.6
			l-14.4,8.2c-0.6,0.4-1.5,0.6-2.2,0.6s-1.5-0.2-2.2-0.6L3.4,33.6c-1.3-0.8-2.2-2.2-2.2-3.6V13.6c0-1.5,0.8-2.9,2.2-3.6l14.4-8.2
			C18.5,1.4,19.3,1.2,20,1.2 M20,0c-1,0-1.9,0.2-2.8,0.7L2.8,9C1.1,10,0,11.7,0,13.6V30c0,1.9,1.1,3.8,2.8,4.7l14.4,8.2
			c0.8,0.5,1.8,0.7,2.8,0.7s1.9-0.2,2.8-0.7l14.4-8.2c1.7-1,2.8-2.8,2.8-4.7V13.6c0-1.9-1.1-3.8-2.8-4.7L22.8,0.7
			C21.9,0.2,21,0,20,0L20,0z"/>
	</g>
	<path style="fill:#1EA184;" d="M25.5,21.9c0-0.7-0.4-1.3-1-1.9c-0.7-0.6-1.9-1.2-3.9-1.8v-4.9c1.5,0,2.8,0.2,3.6,0.8v-1.5
		c-0.7-0.2-1.8-0.5-3.6-0.5v-1.7h-1.5v1.7c-1.3,0.1-2.4,0.5-3.4,1.2c-0.7,0.6-1.2,1.3-1.2,2.3c0,0.7,0.2,1.5,0.8,1.9
		c0.6,0.6,1.8,1.2,3.9,1.8V24c-0.7,0-1.6-0.1-2.5-0.4c-0.8-0.2-1.6-0.5-2.1-0.7v1.6c1.2,0.5,2.8,0.8,4.6,0.8l0.1,3.9h-2.8l3.5,4.1
		l3.5-4.1h-2.8l-0.2-4c1.6-0.1,2.7-0.5,3.5-1.1C25,23.5,25.5,22.6,25.5,21.9 M19.3,17.7c-1-0.4-1.6-0.7-1.9-1
		c-0.4-0.4-0.6-0.7-0.6-1.3c0-0.5,0.2-1,0.6-1.3c0.5-0.4,1-0.6,1.8-0.7L19.3,17.7L19.3,17.7L19.3,17.7z M20.6,24v-4.2
		c1.7,0.6,2.5,1.5,2.5,2.3C23.2,23.1,22.3,23.6,20.6,24"/>
</g>
</svg>
