<?xml version="1.0" encoding="utf-8"?>
<!-- Generator: Adobe Illustrator 16.0.2, SVG Export Plug-In . SVG Version: 6.00 Build 0)  -->
<!DOCTYPE svg PUBLIC "-//W3C//DTD SVG 1.1//EN" "http://www.w3.org/Graphics/SVG/1.1/DTD/svg11.dtd">
<svg version="1.1" id="Слой_1" xmlns="http://www.w3.org/2000/svg" xmlns:xlink="http://www.w3.org/1999/xlink" x="0px" y="0px"
	 width="40px" height="43.6px" viewBox="0 0 40 43.6" style="enable-background:new 0 0 40 43.6;" xml:space="preserve">
<g>
	<g>
		<path style="fill:#EA0B8C;" d="M29.5,12.6h-8.6c-0.1,0-0.2,0.1-0.4,0.1L9.6,23.6c-0.2,0.2-0.2,0.6,0,0.7l8.6,8.6
			c0.2,0.2,0.6,0.2,0.7,0L29.8,22c0.1-0.1,0.1-0.2,0.1-0.4v-8.4C30.1,12.8,29.7,12.6,29.5,12.6 M28.8,21.4L18.5,31.7l-7.8-7.8
			l10.4-10.2h7.8v7.7H28.8z"/>
		<path style="fill:#EA0B8C;" d="M25.9,18.3c1,0,1.7-0.7,1.7-1.7s-0.7-1.7-1.7-1.7s-1.7,0.7-1.7,1.7C24.2,17.4,25.1,18.3,25.9,18.3
			 M25.9,16c0.4,0,0.6,0.2,0.6,0.6s-0.2,0.6-0.6,0.6c-0.4,0-0.6-0.2-0.6-0.6C25.5,16.2,25.7,16,25.9,16"/>
	</g>
	<g>
		<path style="fill:#EA0B8C;" d="M20,1.2c0.7,0,1.5,0.2,2.2,0.6L36.6,10c1.3,0.7,2.2,2.2,2.2,3.6V30c0,1.5-0.8,2.9-2.2,3.6
			l-14.4,8.2c-0.6,0.4-1.5,0.6-2.2,0.6s-1.5-0.2-2.2-0.6L3.4,33.6c-1.3-0.8-2.2-2.2-2.2-3.6V13.6c0-1.5,0.8-2.9,2.2-3.6l14.4-8.2
			C18.5,1.4,19.3,1.2,20,1.2 M20,0c-1,0-1.9,0.2-2.8,0.7L2.8,9C1.1,10,0,11.7,0,13.6V30c0,1.9,1.1,3.8,2.8,4.7l14.4,8.2
			c0.8,0.5,1.8,0.7,2.8,0.7s1.9-0.2,2.8-0.7l14.4-8.2c1.7-1,2.8-2.8,2.8-4.7V13.6c0-1.9-1.1-3.8-2.8-4.7L22.8,0.7
			C21.9,0.2,21,0,20,0L20,0z"/>
	</g>
</g>
</svg>
