<?xml version="1.0" encoding="utf-8"?>
<svg xmlns="http://www.w3.org/2000/svg"
	xmlns:xlink="http://www.w3.org/1999/xlink"
	width="34px" height="36px" viewBox="0 0 34 36">
<rect x="1" y="1" width="1" height="34" fill="rgb(255,255,255)"/><path fillRule="evenodd" d="M 33.3 14.61C 33.3 14.61 24.11 23.8 24.11 23.8 23.81 24.1 23.37 24.17 23 24 22.63 24.17 22.19 24.1 21.89 23.8 21.89 23.8 12.7 14.61 12.7 14.61 12.31 14.22 12.31 13.59 12.7 13.2 13.09 12.81 13.72 12.81 14.11 13.2 14.11 13.2 23 22.09 23 22.09 23 22.09 31.89 13.2 31.89 13.2 32.28 12.81 32.91 12.81 33.3 13.2 33.69 13.59 33.69 14.22 33.3 14.61Z" fill="rgb(255,255,255)"/></svg>