<?xml version="1.0" encoding="utf-8"?>
<!-- Generator: Adobe Illustrator 16.0.2, SVG Export Plug-In . SVG Version: 6.00 Build 0)  -->
<!DOCTYPE svg PUBLIC "-//W3C//DTD SVG 1.1//EN" "http://www.w3.org/Graphics/SVG/1.1/DTD/svg11.dtd">
<svg version="1.1" id="Слой_1" xmlns="http://www.w3.org/2000/svg" xmlns:xlink="http://www.w3.org/1999/xlink" x="0px" y="0px"
	 width="65px" height="72.1px" viewBox="0 0 65 72.1" style="enable-background:new 0 0 65 72.1;" xml:space="preserve">
<g>
	<rect x="18.9" y="23.6" style="fill:#363636;" width="27.2" height="5.9"/>
	<rect x="18.9" y="33.1" style="fill:#363636;" width="27.2" height="5.9"/>
	<rect x="18.9" y="42.5" style="fill:#363636;" width="27.2" height="5.9"/>
	<path style="fill:#363636;" d="M60.5,14.7L37,1.2C35.6,0.4,34.1,0,32.5,0S29.4,0.4,28,1.2L4.5,14.7C1.7,16.3,0,19.3,0,22.5v27.1
		c0,3.2,1.7,6.2,4.5,7.8L28,70.9c1.4,0.8,2.9,1.2,4.5,1.2s3.1-0.4,4.5-1.2l23.5-13.5c2.8-1.6,4.5-4.6,4.5-7.8V22.5
		C65,19.3,63.3,16.3,60.5,14.7z M62.6,49.6c0,2.3-1.3,4.5-3.3,5.7L35.8,68.8c-1,0.6-2.2,0.9-3.3,0.9c-1.2,0-2.3-0.3-3.3-0.9
		L5.7,55.3c-2-1.2-3.3-3.4-3.3-5.7V22.5c0-2.4,1.3-4.5,3.3-5.7L29.2,3.2c1-0.6,2.2-0.9,3.3-0.9c1.2,0,2.3,0.3,3.3,0.9l23.5,13.5
		c2,1.2,3.3,3.4,3.3,5.7V49.6z"/>
</g>
</svg>
