<?xml version="1.0" encoding="utf-8"?>
<!-- Generator: Adobe Illustrator 17.1.0, SVG Export Plug-In . SVG Version: 6.00 Build 0)  -->
<!DOCTYPE svg PUBLIC "-//W3C//DTD SVG 1.1//EN" "http://www.w3.org/Graphics/SVG/1.1/DTD/svg11.dtd">
<svg version="1.1" id="Layer_1" xmlns="http://www.w3.org/2000/svg" xmlns:xlink="http://www.w3.org/1999/xlink" x="0px" y="0px"
	 width="37px" height="36px" viewBox="0 0 37 36" enable-background="new 0 0 37 36" xml:space="preserve">
<path fill="#FFFFFF" d="M37,0H0v36h37V0L37,0z M36,1v34H1V1H36 M23.1,18c0-0.9-0.3-1.7-0.9-2.4c-0.6-0.7-1.7-1.4-3.2-2.2v-6
	c1.3,0,2.3,0.4,3.1,1V6.5c-0.6-0.4-1.6-0.6-3.1-0.6v-2h-1.2v2c-1.1,0.2-2.1,0.6-2.8,1.4c-0.7,0.8-1.1,1.7-1.1,2.8
	c0,0.9,0.2,1.7,0.7,2.4c0.5,0.7,1.6,1.4,3.2,2.2v5.8c-0.7,0-1.4-0.1-2.1-0.4s-1.4-0.6-1.8-1v2c1,0.6,2.3,1,3.9,1l0.1,4.7h-2.3
	l2.9,5.1l3-5.1h-2.4L19,22c1.3-0.2,2.3-0.7,3-1.4C22.8,20,23.1,19.1,23.1,18z M17.8,12.9c-0.8-0.4-1.3-0.8-1.6-1.3
	c-0.3-0.4-0.5-0.9-0.5-1.6c0-0.6,0.2-1.1,0.6-1.6c0.4-0.4,0.9-0.7,1.5-0.8V12.9z M19,20.6v-5.1c1.5,0.8,2.2,1.7,2.2,2.8
	C21.2,19.5,20.5,20.2,19,20.6z"/>
</svg>
