<?xml version="1.0" encoding="utf-8"?>
<!-- Generator: Adobe Illustrator 17.1.0, SVG Export Plug-In . SVG Version: 6.00 Build 0)  -->
<!DOCTYPE svg PUBLIC "-//W3C//DTD SVG 1.1//EN" "http://www.w3.org/Graphics/SVG/1.1/DTD/svg11.dtd">
<svg version="1.1" id="Layer_1" xmlns="http://www.w3.org/2000/svg" xmlns:xlink="http://www.w3.org/1999/xlink" x="0px" y="0px"
	 width="37px" height="36px" viewBox="287.5 378 37 36" style="enable-background:new 287.5 378 37 36;" xml:space="preserve">
<path style="fill:#FFFFFF;" d="M324.5,378h-37v36h37V378L324.5,378z M323.5,379v34h-35v-34H323.5 M296.3,399.9v-7.8h1.1l3,5.8l0,0
	v-5.8h1.1v7.8h-1.1l-3-5.8l0,0v5.8H296.3z M303,399.9v-7.8h4.4v0.8H304v2.5h2.9v0.8H304v2.8h3.4v0.8H303z M307.9,392.1h1.1l1.1,5.6
	h0l1.3-5.6h0.9l1.3,5.6h0l1.1-5.6h1.1l-1.6,7.8h-1l-1.3-5.6l0,0l-1.3,5.6h-1L307.9,392.1z"/>
</svg>
