<?xml version="1.0" encoding="utf-8"?>
<!-- Generator: Adobe Illustrator 17.1.0, SVG Export Plug-In . SVG Version: 6.00 Build 0)  -->
<!DOCTYPE svg PUBLIC "-//W3C//DTD SVG 1.1//EN" "http://www.w3.org/Graphics/SVG/1.1/DTD/svg11.dtd">
<svg version="1.1" id="Layer_1" xmlns="http://www.w3.org/2000/svg" xmlns:xlink="http://www.w3.org/1999/xlink" x="0px" y="0px"
	 width="37px" height="36px" viewBox="287.5 378 37 36" style="enable-background:new 287.5 378 37 36;" xml:space="preserve">
<path style="fill:#FFFFFF;" d="M324.5,378h-37v36h37V378L324.5,378z M323.5,379v34h-35v-34H323.5 M295.1,397.7L295.1,397.7l1.1,0
	c0,0.5,0.1,0.9,0.4,1.2c0.3,0.3,0.7,0.4,1.1,0.4c0.4,0,0.7-0.1,1-0.3c0.2-0.2,0.3-0.5,0.3-0.9c0-0.4-0.1-0.7-0.3-0.9
	s-0.6-0.4-1.1-0.6c-0.7-0.2-1.3-0.5-1.7-0.9c-0.4-0.4-0.6-0.8-0.6-1.4c0-0.6,0.2-1.1,0.7-1.5c0.4-0.4,1-0.6,1.7-0.6
	c0.7,0,1.3,0.2,1.7,0.7c0.4,0.4,0.6,1,0.6,1.6c0,0,0,0,0,0.1l0,0h-1c0-0.5-0.1-0.8-0.4-1.1s-0.6-0.4-1-0.4c-0.4,0-0.7,0.1-0.9,0.4
	c-0.2,0.2-0.3,0.5-0.3,0.9c0,0.3,0.1,0.6,0.4,0.8c0.2,0.2,0.6,0.4,1.2,0.6c0.7,0.2,1.3,0.5,1.6,0.9c0.4,0.4,0.6,0.9,0.6,1.5
	c0,0.6-0.2,1.2-0.7,1.5c-0.4,0.4-1,0.6-1.7,0.6c-0.7,0-1.3-0.2-1.8-0.6C295.3,399,295.1,398.4,295.1,397.7
	C295.1,397.7,295.1,397.7,295.1,397.7z M300.6,399.9l2.4-7.8h1.1l2.4,7.8h-1.1l-0.6-2h-2.5l-0.6,2H300.6z M302.5,397.1h2l-1-3.4h0
	L302.5,397.1z M307.3,399.9v-7.8h1.1v7h3.1v0.8H307.3z M312.5,399.9v-7.8h4.4v0.8h-3.3v2.5h2.9v0.8h-2.9v2.8h3.4v0.8H312.5z"/>
</svg>
