<?xml version="1.0" encoding="utf-8"?>
<!-- Generator: Adobe Illustrator 16.0.2, SVG Export Plug-In . SVG Version: 6.00 Build 0)  -->
<!DOCTYPE svg PUBLIC "-//W3C//DTD SVG 1.1//EN" "http://www.w3.org/Graphics/SVG/1.1/DTD/svg11.dtd">
<svg version="1.1" id="Слой_1" xmlns="http://www.w3.org/2000/svg" xmlns:xlink="http://www.w3.org/1999/xlink" x="0px" y="0px"
	 width="30px" height="30.3px" viewBox="0 0 30 30.3" style="enable-background:new 0 0 30 30.3;" xml:space="preserve">
<path style="fill:#666666;" d="M29.8,29.4c-3-3-6.1-6.1-9.1-9.1c1.4-1.5,2.4-3.3,3-5.3c0.3-1,0.4-2,0.4-3C24,5.7,19.1,0.5,12.8,0
	C6.6-0.4,0.9,4.3,0.1,10.5c-0.8,6.3,3.5,12.2,9.7,13.4c3.8,0.7,7.5-0.5,10.2-2.9c3,3,6.1,6.1,9.1,9.1C29.6,30.6,30.3,29.9,29.8,29.4
	 M10.5,22.9c-3.1-0.4-5.9-2.2-7.6-4.8c-1.8-2.7-2.2-6-1.4-9.1c1.5-5.2,6.8-8.6,12.2-7.8C19,1.9,23,6.7,23,12
	C23,18.7,17,23.9,10.5,22.9"/>
</svg>
